<svg width="736" height="147" viewBox="0 0 736 147" fill="none" xmlns="http://www.w3.org/2000/svg">
<path fill-rule="evenodd" clip-rule="evenodd" d="M528.652 75.6422C533.071 75.6422 536.652 79.2239 536.652 83.6422V123.642H511.188H501.314H223.389C223.079 123.642 222.786 123.498 222.596 123.252L187.228 77.2518C186.722 76.5941 187.191 75.6422 188.02 75.6422H501.314H511.188H528.652Z" fill="url(#paint0_linear)"/>
<g filter="url(#filter0_d)">
<rect x="48" y="32" width="639.198" height="96" rx="8" fill="#35BAFE"/>
<rect x="48.5" y="32.5" width="638.198" height="95" rx="7.5" stroke="white" stroke-opacity="0.2"/>
</g>
<g filter="url(#filter1_d)">
<path d="M48.1514 40C48.1514 35.5817 51.7331 32 56.1514 32H680.001C684.419 32 688 35.5817 688 40V82.7789H48.1514V40Z" fill="white" fill-opacity="0.15"/>
</g>
<defs>
<filter id="filter0_d" x="47" y="32" width="641.198" height="99" filterUnits="userSpaceOnUse" color-interpolation-filters="sRGB">
<feFlood flood-opacity="0" result="BackgroundImageFix"/>
<feColorMatrix in="SourceAlpha" type="matrix" values="0 0 0 0 0 0 0 0 0 0 0 0 0 0 0 0 0 0 127 0" result="hardAlpha"/>
<feOffset dy="2"/>
<feGaussianBlur stdDeviation="0.5"/>
<feColorMatrix type="matrix" values="0 0 0 0 0.0332986 0 0 0 0 0.388899 0 0 0 0 0.570833 0 0 0 1 0"/>
<feBlend mode="normal" in2="BackgroundImageFix" result="effect1_dropShadow"/>
<feBlend mode="normal" in="SourceGraphic" in2="effect1_dropShadow" result="shape"/>
</filter>
<filter id="filter1_d" x="0.151367" y="0" width="735.849" height="146.779" filterUnits="userSpaceOnUse" color-interpolation-filters="sRGB">
<feFlood flood-opacity="0" result="BackgroundImageFix"/>
<feColorMatrix in="SourceAlpha" type="matrix" values="0 0 0 0 0 0 0 0 0 0 0 0 0 0 0 0 0 0 127 0" result="hardAlpha"/>
<feOffset dy="16"/>
<feGaussianBlur stdDeviation="24"/>
<feColorMatrix type="matrix" values="0 0 0 0 0 0 0 0 0 0 0 0 0 0 0 0 0 0 0.176 0"/>
<feBlend mode="normal" in2="BackgroundImageFix" result="effect1_dropShadow"/>
<feBlend mode="normal" in="SourceGraphic" in2="effect1_dropShadow" result="shape"/>
</filter>
<linearGradient id="paint0_linear" x1="361.835" y1="75.6422" x2="361.835" y2="123.642" gradientUnits="userSpaceOnUse">
<stop stop-color="white" stop-opacity="0.3"/>
<stop offset="1" stop-color="white" stop-opacity="0"/>
</linearGradient>
</defs>
</svg>
