<svg width="639" height="133" viewBox="0 0 639 133" fill="none" xmlns="http://www.w3.org/2000/svg">
<path fill-rule="evenodd" clip-rule="evenodd" d="M448.174 59.2239C443.755 59.2239 440.174 62.8056 440.174 67.2239V120C440.174 124.418 443.755 128 448.174 128H453.198H455.804H594.563C595.372 128 595.846 127.09 595.383 126.427L572.836 94.185C572.595 93.8409 572.595 93.383 572.836 93.0389L595.383 60.797C595.846 60.1341 595.372 59.2239 594.563 59.2239H455.804H453.198H448.174Z" fill="#11BA63"/>
<mask id="path-2-inside-1" fill="white">
<path fill-rule="evenodd" clip-rule="evenodd" d="M413.303 67.2239C413.303 62.8056 416.884 59.2239 421.303 59.2239H425.919H428.403H496.806H501.422H503.907H562.428H637.93C638.732 59.2239 639.208 60.1196 638.759 60.7837L616.959 93.0521C616.731 93.3904 616.731 93.8335 616.959 94.1717L638.759 126.44C639.208 127.104 638.732 128 637.93 128H562.428H503.907H501.422H496.806H428.403H425.919H421.303C416.884 128 413.303 124.418 413.303 120V67.2239Z"/>
</mask>
<path fill-rule="evenodd" clip-rule="evenodd" d="M413.303 67.2239C413.303 62.8056 416.884 59.2239 421.303 59.2239H425.919H428.403H496.806H501.422H503.907H562.428H637.93C638.732 59.2239 639.208 60.1196 638.759 60.7837L616.959 93.0521C616.731 93.3904 616.731 93.8335 616.959 94.1717L638.759 126.44C639.208 127.104 638.732 128 637.93 128H562.428H503.907H501.422H496.806H428.403H425.919H421.303C416.884 128 413.303 124.418 413.303 120V67.2239Z" fill="#11BA63"/>
<path d="M638.759 60.7837L639.588 61.3435L639.588 61.3435L638.759 60.7837ZM616.959 93.0521L616.131 92.4923L616.13 92.4924L616.959 93.0521ZM616.959 94.1717L616.13 94.7315L616.131 94.7315L616.959 94.1717ZM638.759 126.44L639.588 125.88L639.588 125.88L638.759 126.44ZM421.303 58.2239C416.332 58.2239 412.303 62.2533 412.303 67.2239H414.303C414.303 63.3579 417.437 60.2239 421.303 60.2239V58.2239ZM425.919 58.2239H421.303V60.2239H425.919V58.2239ZM428.403 58.2239H425.919V60.2239H428.403V58.2239ZM496.806 58.2239H428.403V60.2239H496.806V58.2239ZM501.422 58.2239H496.806V60.2239H501.422V58.2239ZM503.907 58.2239H501.422V60.2239H503.907V58.2239ZM562.428 58.2239H503.907V60.2239H562.428V58.2239ZM637.93 58.2239H562.428V60.2239H637.93V58.2239ZM639.588 61.3435C640.485 60.0152 639.533 58.2239 637.93 58.2239V60.2239L637.93 60.2239L639.588 61.3435ZM617.788 93.6119L639.588 61.3435L637.93 60.2239L616.131 92.4923L617.788 93.6119ZM617.788 93.612V93.6119L616.13 92.4924C615.674 93.1688 615.674 94.0551 616.13 94.7315L617.788 93.612ZM639.588 125.88L617.788 93.6119L616.131 94.7315L637.93 127L639.588 125.88ZM637.93 129C639.533 129 640.485 127.209 639.588 125.88L637.93 127L637.93 127V129ZM562.428 129H637.93V127H562.428V129ZM503.907 129H562.428V127H503.907V129ZM501.422 129H503.907V127H501.422V129ZM496.806 129H501.422V127H496.806V129ZM428.403 129H496.806V127H428.403V129ZM425.919 129H428.403V127H425.919V129ZM421.303 129H425.919V127H421.303V129ZM412.303 120C412.303 124.971 416.332 129 421.303 129V127C417.437 127 414.303 123.866 414.303 120H412.303ZM412.303 67.2239V120H414.303V67.2239H412.303Z" fill="white" fill-opacity="0.1" mask="url(#path-2-inside-1)"/>
<mask id="path-4-inside-2" fill="white">
<path fill-rule="evenodd" clip-rule="evenodd" d="M1.00168 128H75.4999H133.229H135.668H140.128H207.727H210.166H214.627C219.045 128 222.627 124.418 222.627 120V67.2239C222.627 62.8056 219.045 59.2239 214.627 59.2239H210.166H207.727H140.128H135.668H133.229H75.4999H1.00168C0.203006 59.2239 -0.273388 60.114 0.169605 60.7785L21.686 93.0573C21.9099 93.3932 21.9099 93.8307 21.686 94.1666L0.169605 126.445C-0.273388 127.11 0.203006 128 1.00168 128Z"/>
</mask>
<path fill-rule="evenodd" clip-rule="evenodd" d="M1.00168 128H75.4999H133.229H135.668H140.128H207.727H210.166H214.627C219.045 128 222.627 124.418 222.627 120V67.2239C222.627 62.8056 219.045 59.2239 214.627 59.2239H210.166H207.727H140.128H135.668H133.229H75.4999H1.00168C0.203006 59.2239 -0.273388 60.114 0.169605 60.7785L21.686 93.0573C21.9099 93.3932 21.9099 93.8307 21.686 94.1666L0.169605 126.445C-0.273388 127.11 0.203006 128 1.00168 128Z" fill="#11BA63"/>
<path d="M0.169605 60.7785L1.00169 60.2239L1.00168 60.2239L0.169605 60.7785ZM21.686 93.0573L22.5181 92.5026L22.5181 92.5026L21.686 93.0573ZM21.686 94.1666L22.5181 94.7212L22.5181 94.7212L21.686 94.1666ZM0.169605 126.445L1.00168 127L1.00169 127L0.169605 126.445ZM75.4999 127H1.00168V129H75.4999V127ZM75.4999 129H133.229V127H75.4999V129ZM133.229 129H135.668V127H133.229V129ZM135.668 129H140.128V127H135.668V129ZM140.128 129H207.727V127H140.128V129ZM207.727 129H210.166V127H207.727V129ZM210.166 129H214.627V127H210.166V129ZM214.627 129C219.598 129 223.627 124.971 223.627 120H221.627C221.627 123.866 218.493 127 214.627 127V129ZM223.627 120V67.2239H221.627V120H223.627ZM223.627 67.2239C223.627 62.2533 219.598 58.2239 214.627 58.2239V60.2239C218.493 60.2239 221.627 63.3579 221.627 67.2239H223.627ZM214.627 58.2239H210.166V60.2239H214.627V58.2239ZM210.166 58.2239H207.727V60.2239H210.166V58.2239ZM207.727 58.2239H140.128V60.2239H207.727V58.2239ZM140.128 58.2239H135.668V60.2239H140.128V58.2239ZM135.668 58.2239H133.229V60.2239H135.668V58.2239ZM133.229 58.2239H75.4999V60.2239H133.229V58.2239ZM1.00168 60.2239H75.4999V58.2239H1.00168V60.2239ZM1.00168 60.2239L1.00168 60.2239V58.2239C-0.595659 58.2239 -1.54846 60.0041 -0.662472 61.3332L1.00168 60.2239ZM22.5181 92.5026L1.00169 60.2239L-0.662478 61.3332L20.8539 93.6119L22.5181 92.5026ZM22.5181 94.7212C22.9659 94.0495 22.9659 93.1744 22.5181 92.5026L20.8539 93.6119V93.6119L22.5181 94.7212ZM1.00169 127L22.5181 94.7212L20.8539 93.6119L-0.662478 125.891L1.00169 127ZM1.00168 127L1.00168 127L-0.662472 125.891C-1.54846 127.22 -0.595664 129 1.00168 129V127Z" fill="white" fill-opacity="0.2" mask="url(#path-4-inside-2)"/>
<path fill-rule="evenodd" clip-rule="evenodd" d="M215.268 59.2239C219.686 59.2239 223.268 62.8056 223.268 67.2239V93.6119H206.628H200.678H23.2227C22.8931 93.6119 22.5846 93.4495 22.3981 93.1777L0.177444 60.7896C-0.277817 60.126 0.197296 59.2239 1.00203 59.2239H200.678H206.628H215.268Z" fill="white" fill-opacity="0.15"/>
<path fill-rule="evenodd" clip-rule="evenodd" d="M424.058 63.266C428.476 63.266 432.058 66.8477 432.058 71.266V97.654H414.65H408.359H222.155C221.833 97.654 221.531 97.4993 221.343 97.2382L198.032 64.8502C197.556 64.1887 198.029 63.266 198.844 63.266H408.359H414.65H424.058Z" fill="url(#paint0_linear)"/>
<path fill-rule="evenodd" clip-rule="evenodd" d="M407.809 59.2842C403.391 59.2842 399.809 62.8659 399.809 67.2842V93.6722H417.562H424.006H614.143C614.461 93.6722 614.76 93.5208 614.948 93.2644L638.75 60.8764C639.235 60.2159 638.764 59.2842 637.944 59.2842H424.006H417.562H407.809Z" fill="white" fill-opacity="0.15"/>
<g filter="url(#filter0_d)">
<rect x="110.434" y="32" width="415.702" height="68.7158" rx="8" fill="#11BA63"/>
<rect x="110.934" y="32.5" width="414.702" height="67.7158" rx="7.5" stroke="white" stroke-opacity="0.1"/>
</g>
<g filter="url(#filter1_d)">
<path d="M110.434 40C110.434 35.5817 114.016 32 118.434 32H518.136C522.554 32 526.136 35.5817 526.136 40V68.3789H110.434V40Z" fill="white" fill-opacity="0.15"/>
</g>
<defs>
<filter id="filter0_d" x="109.434" y="32" width="417.702" height="71.7158" filterUnits="userSpaceOnUse" color-interpolation-filters="sRGB">
<feFlood flood-opacity="0" result="BackgroundImageFix"/>
<feColorMatrix in="SourceAlpha" type="matrix" values="0 0 0 0 0 0 0 0 0 0 0 0 0 0 0 0 0 0 127 0" result="hardAlpha"/>
<feOffset dy="2"/>
<feGaussianBlur stdDeviation="0.5"/>
<feColorMatrix type="matrix" values="0 0 0 0 0.298524 0 0 0 0 0.754167 0 0 0 0 0.50812 0 0 0 1 0"/>
<feBlend mode="normal" in2="BackgroundImageFix" result="effect1_dropShadow"/>
<feBlend mode="normal" in="SourceGraphic" in2="effect1_dropShadow" result="shape"/>
</filter>
<filter id="filter1_d" x="62.4341" y="0" width="511.702" height="132.379" filterUnits="userSpaceOnUse" color-interpolation-filters="sRGB">
<feFlood flood-opacity="0" result="BackgroundImageFix"/>
<feColorMatrix in="SourceAlpha" type="matrix" values="0 0 0 0 0 0 0 0 0 0 0 0 0 0 0 0 0 0 127 0" result="hardAlpha"/>
<feOffset dy="16"/>
<feGaussianBlur stdDeviation="24"/>
<feColorMatrix type="matrix" values="0 0 0 0 0 0 0 0 0 0 0 0 0 0 0 0 0 0 0.176 0"/>
<feBlend mode="normal" in2="BackgroundImageFix" result="effect1_dropShadow"/>
<feBlend mode="normal" in="SourceGraphic" in2="effect1_dropShadow" result="shape"/>
</filter>
<linearGradient id="paint0_linear" x1="314.95" y1="63.266" x2="314.95" y2="97.654" gradientUnits="userSpaceOnUse">
<stop stop-color="white" stop-opacity="0.3"/>
<stop offset="1" stop-color="white" stop-opacity="0"/>
</linearGradient>
</defs>
</svg>
