<svg width="30" height="24" viewBox="0 0 30 24" fill="none" xmlns="http://www.w3.org/2000/svg">
<path d="M29.2733 2.84107C28.2146 3.32296 27.0769 3.64864 25.8828 3.79512C27.1017 3.04523 28.0376 1.85786 28.4784 0.443104C27.3378 1.13736 26.0745 1.6416 24.7298 1.91338C23.6529 0.735842 22.1188 0 20.4209 0C17.1607 0 14.5176 2.71274 14.5176 6.05871C14.5176 6.53357 14.5699 6.99601 14.6705 7.43944C9.76431 7.18678 5.41459 4.77466 2.50305 1.10906C1.99492 2.00391 1.70381 3.04469 1.70381 4.15505C1.70381 6.25704 2.74606 8.11155 4.33002 9.19803C3.36228 9.1666 2.45211 8.89406 1.65613 8.44026C1.65571 8.46554 1.65571 8.49092 1.65571 8.51642C1.65571 11.452 3.69054 13.9009 6.39106 14.4574C5.89567 14.5959 5.37417 14.6699 4.83573 14.6699C4.45537 14.6699 4.08553 14.6319 3.72517 14.5612C4.47631 16.9683 6.65639 18.72 9.23955 18.769C7.21925 20.3939 4.67386 21.3625 1.9082 21.3625C1.43175 21.3625 0.961821 21.3339 0.5 21.278C3.11243 22.997 6.21541 24 9.54908 24C20.4071 24 26.3447 14.7677 26.3447 6.76128C26.3447 6.49857 26.339 6.23727 26.3277 5.97748C27.481 5.12324 28.4819 4.0561 29.2733 2.84107Z" fill="white"/>
</svg>
