<svg width="35" height="34" viewBox="0 0 35 34" fill="none" xmlns="http://www.w3.org/2000/svg">
<g clip-path="url(#clip0)">
<path d="M7.56459 16.1872C7.56462 15.9974 7.60214 15.8094 7.67499 15.6341C7.74784 15.4588 7.85458 15.2996 7.9891 15.1657C8.12361 15.0318 8.28323 14.9258 8.45881 14.8538C8.63439 14.7818 8.82246 14.7451 9.01223 14.746L11.4123 14.7539C11.7949 14.7539 12.1619 14.9059 12.4325 15.1766C12.7031 15.4473 12.8551 15.8145 12.8551 16.1973V25.2764C13.1255 25.1963 13.4714 25.1108 13.8521 25.0211C14.1158 24.9591 14.3509 24.8097 14.5191 24.5972C14.6874 24.3848 14.7789 24.1217 14.779 23.8507V12.5894C14.779 12.2066 14.931 11.8394 15.2016 11.5687C15.4722 11.298 15.8392 11.1458 16.2219 11.1457H18.6292C19.0119 11.1458 19.3789 11.298 19.6495 11.5687C19.9201 11.8394 20.0721 12.2066 20.0721 12.5894V23.0417C20.0721 23.0417 20.6743 22.7979 21.2606 22.5502C21.4785 22.458 21.6644 22.3037 21.7951 22.1065C21.9259 21.9093 21.9957 21.678 21.9959 21.4413V8.98076C21.9959 8.59799 22.1479 8.23089 22.4184 7.96021C22.689 7.68952 23.0559 7.53742 23.4385 7.53734H25.8433C26.2258 7.53771 26.5924 7.68995 26.8627 7.96061C27.133 8.23126 27.2848 8.59818 27.2848 8.98076V19.2416C29.3697 17.7301 31.4826 15.912 33.1594 13.726C33.4027 13.4087 33.5637 13.0361 33.628 12.6414C33.6923 12.2467 33.658 11.8423 33.528 11.4641C32.7519 9.23019 31.5181 7.183 29.9056 5.4535C28.2931 3.72399 26.3375 2.35027 24.1639 1.42024C21.9903 0.490201 19.6465 0.0243302 17.2825 0.0524393C14.9186 0.0805485 12.5866 0.602017 10.4356 1.58348C8.28473 2.56493 6.36231 3.98477 4.79139 5.75212C3.22048 7.51948 2.03567 9.59543 1.31279 11.8471C0.589907 14.0988 0.344868 16.4767 0.59335 18.8286C0.841833 21.1805 1.57837 23.4546 2.75582 25.5054C2.96096 25.8591 3.26277 26.147 3.62578 26.3351C3.9888 26.5233 4.39794 26.6038 4.80515 26.5674C5.26006 26.5273 5.82646 26.4707 6.49986 26.3917C6.79294 26.3583 7.06352 26.2183 7.26006 25.9983C7.45661 25.7783 7.5654 25.4936 7.56571 25.1985V16.1872" fill="white"/>
<path d="M7.51392 30.7477C10.0488 32.5925 13.0443 33.6998 16.1692 33.9471C19.2941 34.1944 22.4264 33.5722 25.2197 32.1491C28.013 30.7261 30.3583 28.5578 31.9962 25.8841C33.6341 23.2105 34.5007 20.1356 34.5001 16.9998C34.5001 16.6075 34.4819 16.2214 34.4558 15.8363C28.2476 25.099 16.7847 29.4293 7.51392 30.7477" fill="white"/>
</g>
<defs>
<clipPath id="clip0">
<rect width="34" height="34" fill="white" transform="translate(0.5)"/>
</clipPath>
</defs>
</svg>
