<svg width="641" height="133" viewBox="0 0 641 133" fill="none" xmlns="http://www.w3.org/2000/svg">
<path d="M453.224 60.2239C453.224 59.6716 453.672 59.2239 454.224 59.2239H595.589C596.398 59.2239 596.872 60.1341 596.408 60.797L573.862 93.0389C573.621 93.383 573.621 93.8409 573.862 94.185L596.408 126.427C596.872 127.09 596.398 128 595.589 128H454.224C453.672 128 453.224 127.552 453.224 127V60.2239Z" fill="#FFC700"/>
<path d="M441.199 67.2239C441.199 62.8056 444.781 59.2239 449.199 59.2239H456.83V128H449.199C444.781 128 441.199 124.418 441.199 120V67.2239Z" fill="#FFC700"/>
<path d="M425.945 60.2239C425.945 59.6716 426.393 59.2239 426.945 59.2239H563.454C564.255 59.2239 564.731 60.1196 564.282 60.7837L542.482 93.0521C542.254 93.3904 542.254 93.8335 542.482 94.1717L564.282 126.44C564.731 127.104 564.255 128 563.454 128H426.945C426.393 128 425.945 127.552 425.945 127V60.2239Z" fill="#FFC700"/>
<path d="M414.329 67.2239C414.329 62.8056 417.91 59.2239 422.329 59.2239H429.429V128H422.329C417.91 128 414.329 124.418 414.329 120V67.2239Z" fill="#FFC700"/>
<path d="M501.447 60.2239C501.447 59.6716 501.895 59.2239 502.447 59.2239H638.956C639.758 59.2239 640.233 60.1196 639.785 60.7837L617.985 93.0521C617.756 93.3904 617.756 93.8335 617.985 94.1717L639.785 126.44C640.233 127.104 639.758 128 638.956 128H502.447C501.895 128 501.447 127.552 501.447 127V60.2239Z" fill="#FFC700"/>
<path d="M489.832 67.2239C489.832 62.8056 493.414 59.2239 497.832 59.2239H504.933V128H497.832C493.414 128 489.832 124.418 489.832 120V67.2239Z" fill="#FFC700"/>
<path d="M212.192 60.2239C212.192 59.6716 211.744 59.2239 211.192 59.2239H76.5256C75.7269 59.2239 75.2505 60.114 75.6935 60.7785L97.2099 93.0573C97.4338 93.3932 97.4338 93.8307 97.2099 94.1666L75.6935 126.445C75.2505 127.11 75.7269 128 76.5256 128H211.192C211.744 128 212.192 127.552 212.192 127V60.2239Z" fill="#FFC700"/>
<path d="M223.653 67.2239C223.653 62.8056 220.071 59.2239 215.653 59.2239H208.753V128H215.653C220.071 128 223.653 124.418 223.653 120V67.2239Z" fill="#FFC700"/>
<path d="M212.192 60.2239C212.192 59.6716 211.744 59.2239 211.192 59.2239H76.5256C75.7269 59.2239 75.2505 60.114 75.6935 60.7785L97.2099 93.0573C97.4338 93.3932 97.4338 93.8307 97.2099 94.1666L75.6935 126.445C75.2505 127.11 75.7269 128 76.5256 128H211.192C211.744 128 212.192 127.552 212.192 127V60.2239Z" fill="#FFC700"/>
<path d="M223.653 67.2239C223.653 62.8056 220.071 59.2239 215.653 59.2239H208.753V128H215.653C220.071 128 223.653 124.418 223.653 120V67.2239Z" fill="#FFC700"/>
<path d="M137.694 60.2239C137.694 59.6716 137.246 59.2239 136.694 59.2239H2.02752C1.22885 59.2239 0.752458 60.114 1.19544 60.7785L22.7119 93.0573C22.9358 93.3932 22.9358 93.8307 22.7119 94.1666L1.19544 126.445C0.75246 127.11 1.22885 128 2.02752 128H136.694C137.246 128 137.694 127.552 137.694 127V60.2239Z" fill="#FFC700"/>
<path d="M149.154 67.2239C149.154 62.8056 145.573 59.2239 141.154 59.2239H134.255V128H141.154C145.573 128 149.154 124.418 149.154 120V67.2239Z" fill="#FFC700"/>
<path opacity="0.3" d="M208.654 60.2239C208.654 59.6716 208.207 59.2239 207.654 59.2239H2.02824C1.2235 59.2239 0.748385 60.126 1.20365 60.7896L23.4243 93.1777C23.6108 93.4495 23.9193 93.6119 24.2489 93.6119H207.654C208.207 93.6119 208.654 93.1642 208.654 92.6119V60.2239Z" fill="#FFC700"/>
<path d="M224.294 67.2239C224.294 62.8056 220.712 59.2239 216.294 59.2239H201.704V93.6119H224.294V67.2239Z" fill="#FFC700"/>
<path opacity="0.3" d="M416.676 64.266C416.676 63.7137 416.229 63.266 415.676 63.266H199.87C199.055 63.266 198.582 64.1887 199.058 64.8502L222.369 97.2382C222.557 97.4993 222.859 97.654 223.181 97.654H415.676C416.229 97.654 416.676 97.2063 416.676 96.654V64.266Z" fill="#FFC700"/>
<path d="M433.083 71.266C433.083 66.8477 429.502 63.266 425.083 63.266H409.385V97.654H433.083V71.266Z" fill="#FFC700"/>
<path opacity="0.3" d="M417.588 60.2842C417.588 59.7319 418.036 59.2842 418.588 59.2842H638.97C639.79 59.2842 640.261 60.2159 639.776 60.8764L615.975 93.2644C615.786 93.5208 615.487 93.6722 615.169 93.6722H418.588C418.036 93.6722 417.588 93.2245 417.588 92.6722V60.2842Z" fill="#FFC700"/>
<path d="M400.835 67.2842C400.835 62.8659 404.417 59.2842 408.835 59.2842H425.033V93.6722H400.835V67.2842Z" fill="#FFC700"/>
<g filter="url(#filter0_d)">
<rect x="111.46" y="32" width="415.702" height="68.7158" rx="8" fill="#FFC700"/>
<rect x="111.96" y="32.5" width="414.702" height="67.7158" rx="7.5" stroke="white" stroke-opacity="0.1"/>
</g>
<g filter="url(#filter1_d)">
<path d="M111.46 40C111.46 35.5817 115.042 32 119.46 32H519.162C523.58 32 527.162 35.5817 527.162 40V68.3789H111.46V40Z" fill="white" fill-opacity="0.15"/>
</g>
<defs>
<filter id="filter0_d" x="110.46" y="32" width="417.702" height="71.7158" filterUnits="userSpaceOnUse" color-interpolation-filters="sRGB">
<feFlood flood-opacity="0" result="BackgroundImageFix"/>
<feColorMatrix in="SourceAlpha" type="matrix" values="0 0 0 0 0 0 0 0 0 0 0 0 0 0 0 0 0 0 127 0" result="hardAlpha"/>
<feOffset dy="2"/>
<feGaussianBlur stdDeviation="0.5"/>
<feColorMatrix type="matrix" values="0 0 0 0 0.704167 0 0 0 0 0.512751 0 0 0 0 0.0205382 0 0 0 1 0"/>
<feBlend mode="normal" in2="BackgroundImageFix" result="effect1_dropShadow"/>
<feBlend mode="normal" in="SourceGraphic" in2="effect1_dropShadow" result="shape"/>
</filter>
<filter id="filter1_d" x="63.46" y="0" width="511.702" height="132.379" filterUnits="userSpaceOnUse" color-interpolation-filters="sRGB">
<feFlood flood-opacity="0" result="BackgroundImageFix"/>
<feColorMatrix in="SourceAlpha" type="matrix" values="0 0 0 0 0 0 0 0 0 0 0 0 0 0 0 0 0 0 127 0" result="hardAlpha"/>
<feOffset dy="16"/>
<feGaussianBlur stdDeviation="24"/>
<feColorMatrix type="matrix" values="0 0 0 0 0 0 0 0 0 0 0 0 0 0 0 0 0 0 0.176 0"/>
<feBlend mode="normal" in2="BackgroundImageFix" result="effect1_dropShadow"/>
<feBlend mode="normal" in="SourceGraphic" in2="effect1_dropShadow" result="shape"/>
</filter>
</defs>
</svg>
