<svg width="37" height="26" viewBox="0 0 37 26" fill="none" xmlns="http://www.w3.org/2000/svg">
<path d="M16.7065 21.669C17.2689 21.669 17.7752 22.119 17.7752 22.7377C17.7752 23.3002 17.3252 23.8064 16.7065 23.8064C16.144 23.8064 15.6378 23.3564 15.6378 22.7377C15.6378 22.119 16.144 21.669 16.7065 21.669ZM33.243 15.1444C32.6806 15.1444 32.1744 14.6944 32.1744 14.0757C32.1744 13.5132 32.6243 13.007 33.243 13.007C33.8055 13.007 34.3117 13.457 34.3117 14.0757C34.3117 14.6381 33.8055 15.1444 33.243 15.1444ZM33.243 10.8134C31.4431 10.8134 29.9807 12.2758 29.9807 14.0757C29.9807 14.4132 30.037 14.7506 30.1495 15.0881L19.4063 20.8253C18.7876 19.9253 17.7752 19.4191 16.7065 19.4191C15.4691 19.4191 14.3441 20.1503 13.7816 21.219L4.1072 16.1568C3.09476 15.5943 2.3073 13.9632 2.41979 12.3883C2.47604 11.6008 2.75727 10.9821 3.151 10.7571C3.43224 10.5884 3.71347 10.6446 4.1072 10.8134L4.16344 10.8696C6.7508 12.2195 15.1316 16.6068 15.4691 16.7755C16.0315 17.0005 16.3128 17.113 17.2689 16.663L34.593 7.66354C34.8742 7.55105 35.1554 7.32606 35.1554 6.93233C35.1554 6.42611 34.6492 6.20112 34.6492 6.20112C33.6368 5.75115 32.1181 5.01994 30.6557 4.34498C27.5059 2.88256 23.9061 1.19516 22.3312 0.351455C20.9812 -0.379753 19.8563 0.238962 19.6876 0.351455L19.2938 0.520196C12.1505 4.11999 2.70103 8.78848 2.13856 9.12596C1.18236 9.68843 0.563649 10.8696 0.507403 12.332C0.394909 14.6381 1.57609 17.0568 3.2635 17.9005L13.5004 23.1877C13.7254 24.7626 15.1316 26 16.7065 26C18.5064 26 19.9125 24.5938 19.9688 22.7939L31.2182 16.7193C31.7806 17.1693 32.5118 17.3942 33.243 17.3942C35.0429 17.3942 36.5054 15.9318 36.5054 14.1319C36.5054 12.2758 35.0429 10.8134 33.243 10.8134Z" fill="white"/>
</svg>
