<svg width="222" height="42" viewBox="0 0 222 42" fill="none" xmlns="http://www.w3.org/2000/svg">
<path d="M24.2998 0H34.105V9.13859H24.2998V0Z" fill="#212529"/>
<path d="M34.105 0H43.697V9.13859H34.105V0Z" fill="#212529"/>
<path d="M34.105 9.13855H43.697V18.4802H34.105V9.13855Z" fill="#212529"/>
<path d="M17.0525 25.1819L17.0525 16.0433L26.6445 16.0433L26.6445 25.1819L17.0525 25.1819Z" fill="#212529"/>
<path d="M0 18.4802L1.11398e-07 9.13855L9.59204 9.13855L9.59204 18.4802L0 18.4802Z" fill="#212529"/>
<path d="M0 9.13855L1.08977e-07 -4.4018e-05L9.59204 -4.39036e-05L9.59204 9.13855L0 9.13855Z" fill="#212529"/>
<path d="M9.59204 9.13855L9.59204 -4.4018e-05L19.3972 -4.39066e-05L19.3972 9.13855L9.59204 9.13855Z" fill="#212529"/>
<path d="M19.3972 41.2252L9.59202 41.2252L9.59202 32.0866L19.3972 32.0866L19.3972 41.2252Z" fill="#212529"/>
<path d="M9.59204 41.2252L4.11272e-06 41.2252L4.95128e-06 32.0866L9.59204 32.0866L9.59204 41.2252Z" fill="#212529"/>
<path d="M9.59204 32.0867L4.11272e-06 32.0867L4.96992e-06 22.745L9.59204 22.745L9.59204 32.0867Z" fill="#212529"/>
<path d="M43.697 22.745L43.697 32.0867L33.8918 32.0867L33.8918 22.745L43.697 22.745Z" fill="#212529"/>
<path d="M43.697 32.0867L43.697 41.2253L33.8918 41.2253L33.8918 32.0867L43.697 32.0867Z" fill="#212529"/>
<path d="M34.105 32.0867L34.105 41.2253L24.2998 41.2253L24.2998 32.0867L34.105 32.0867Z" fill="#212529"/>
<path d="M59.4707 34.643V5.76998H75.1151C78.0122 5.76998 80.0724 6.30894 81.2956 7.38687C82.551 8.46479 83.1788 10.0355 83.1788 12.0989C83.1788 14.1624 82.7764 15.7639 81.9716 16.9034C81.1991 18.0121 80.1529 18.7359 78.8331 19.0747V19.3518C82.7281 19.9986 84.6756 22.5394 84.6756 26.9743C84.6756 29.2841 84.0318 31.1474 82.7442 32.5641C81.4566 33.95 79.4769 34.643 76.8051 34.643H59.4707ZM72.894 23.14H69.1277V27.852H72.8457C74.1977 27.852 74.8737 27.0667 74.8737 25.496C74.8737 23.9253 74.2138 23.14 72.894 23.14ZM72.1697 12.0989H69.1277V16.3952H72.1214C73.3447 16.3952 73.9563 15.6869 73.9563 14.2702C73.9563 12.8227 73.3608 12.0989 72.1697 12.0989Z" fill="#212529"/>
<path d="M86.9352 34.1348L88.2872 26.5123C91.2487 27.2207 93.9044 27.5749 96.2542 27.5749C98.6363 27.5749 100.552 27.4825 102 27.2977V24.9878L97.6545 24.6183C93.7273 24.2795 91.0233 23.3864 89.5426 21.9389C88.094 20.4606 87.3698 18.2893 87.3698 15.4251C87.3698 11.483 88.255 8.77277 90.0254 7.29447C91.8281 5.81618 94.8701 5.07703 99.1514 5.07703C103.433 5.07703 107.295 5.462 110.74 6.23195L109.533 13.6234C106.539 13.1615 104.141 12.9305 102.338 12.9305C100.536 12.9305 99.0065 13.0075 97.7511 13.1615V15.4251L101.228 15.7485C105.445 16.1489 108.358 17.119 109.967 18.6589C111.577 20.168 112.382 22.2776 112.382 24.9878C112.382 26.9281 112.108 28.5758 111.561 29.9309C111.013 31.2552 110.354 32.2715 109.581 32.9799C108.841 33.6574 107.778 34.181 106.394 34.5506C105.01 34.9202 103.787 35.1357 102.724 35.1973C101.694 35.2897 100.31 35.3359 98.5719 35.3359C94.3872 35.3359 90.5083 34.9356 86.9352 34.1348Z" fill="#212529"/>
<path d="M136.145 26.3737L136.869 34.1348C134.841 34.9356 132.298 35.3359 129.24 35.3359C126.182 35.3359 123.72 35.0279 121.853 34.412C120.018 33.796 118.569 32.8259 117.507 31.5016C116.445 30.1773 115.704 28.622 115.286 26.8357C114.867 25.0494 114.658 22.8474 114.658 20.2296C114.658 17.6118 114.867 15.4097 115.286 13.6234C115.704 11.8064 116.445 10.2357 117.507 8.91136C119.567 6.35514 123.349 5.07703 128.854 5.07703C130.077 5.07703 131.51 5.20022 133.151 5.4466C134.825 5.66219 136.065 5.93937 136.869 6.27814L135.421 13.3463C133.328 12.9151 131.413 12.6995 129.675 12.6995C127.937 12.6995 126.729 12.8535 126.053 13.1615C125.377 13.4694 125.039 14.0854 125.039 15.0093V27.1129C126.295 27.3593 127.566 27.4825 128.854 27.4825C131.59 27.4825 134.02 27.1129 136.145 26.3737Z" fill="#212529"/>
<path d="M167.482 5.76998H177.574L172.842 34.643H160.239L158.018 24.0177H157.439L155.266 34.643H142.664L137.932 5.76998H148.023L150.293 21.8927H150.582L154.059 5.76998H161.446L164.875 21.8927H165.164L167.482 5.76998Z" fill="#212529"/>
<path d="M180.099 34.643V5.76998H189.756V34.643H180.099Z" fill="#212529"/>
<path d="M212.392 34.643L205.004 24.3873C204.747 24.0485 204.586 23.3094 204.521 22.1698H204.328V34.643H194.671V5.76998H203.749L211.136 16.0257C211.394 16.3644 211.555 17.1036 211.619 18.2431H211.812V5.76998H221.47V34.643H212.392Z" fill="#212529"/>
</svg>
