<svg width="211" height="52" viewBox="0 0 211 52" fill="none" xmlns="http://www.w3.org/2000/svg">
<path d="M0.000129627 39.2661C0.000130771 32.7219 5.3053 27.4167 11.8496 27.4167L22.7875 27.4167C23.2909 27.4167 23.699 27.8248 23.699 28.3282L23.699 39.2661C23.699 45.8104 18.3938 51.1156 11.8496 51.1156C5.3053 51.1156 0.000128483 45.8104 0.000129627 39.2661Z" fill="white"/>
<path d="M11.8494 0.000128591C18.3937 0.000130021 23.6989 5.3053 23.6989 11.8496L23.6989 22.7875C23.6989 23.2909 23.2908 23.699 22.7874 23.699L11.8494 23.699C5.30517 23.699 -1.43029e-06 18.3938 0 11.8496C1.43029e-06 5.3053 5.30518 0.000127161 11.8494 0.000128591Z" fill="white"/>
<path d="M50.6506 11.8494C50.6506 18.3937 45.3454 23.6989 38.8011 23.6989L27.8632 23.6989C27.3598 23.6989 26.9517 23.2908 26.9517 22.7874L26.9517 11.8494C26.9517 5.30517 32.2569 -1.14423e-06 38.8011 0C45.3454 1.14423e-06 50.6506 5.30518 50.6506 11.8494Z" fill="white"/>
<path d="M38.8013 51.1153C32.257 51.1153 26.9518 45.8101 26.9518 39.2659L26.9518 28.3279C26.9518 27.8245 27.3599 27.4164 27.8633 27.4164L38.8012 27.4164C45.3455 27.4164 50.6507 32.7216 50.6507 39.2659C50.6507 45.8101 45.3455 51.1153 38.8013 51.1153Z" fill="white"/>
<path d="M74.8002 28.4985C74.7438 28.4985 74.698 28.5443 74.698 28.6007V38.5408C74.698 40.4548 73.1465 42.0063 71.2326 42.0063H68.2732C66.3593 42.0063 64.8078 40.4548 64.8078 38.5408V14.4337C64.8078 12.5198 66.3593 10.9683 68.2732 10.9683H71.2326C73.1465 10.9683 74.698 12.5198 74.698 14.4337V23.5296C74.698 23.586 74.7438 23.6318 74.8002 23.6318C74.854 23.6318 74.8986 23.59 74.9025 23.5364C74.9725 22.5875 75.1351 21.8248 75.3904 21.248L79.2995 12.956C79.8716 11.7425 81.0926 10.9683 82.4341 10.9683H85.3781C87.9379 10.9683 89.6142 13.648 88.4943 15.9498L84.2371 24.6998C83.772 25.6559 83.7714 26.7726 84.2357 27.7291L88.7489 37.0277C89.866 39.3292 88.1896 42.0063 85.6312 42.0063H82.7085C81.353 42.0063 80.122 41.216 79.5577 39.9836L75.3904 30.8823C75.1351 30.3055 74.9725 29.5428 74.9025 28.5939C74.8986 28.5403 74.854 28.4985 74.8002 28.4985Z" fill="white"/>
<path d="M100.793 10.9683C102.707 10.9683 104.259 12.5198 104.259 14.4337V30.7937C104.259 32.7077 105.81 34.2592 107.724 34.2592H107.77C109.022 34.2592 109.88 34.1102 110.341 33.8122C110.803 33.4812 111.033 32.7528 111.033 31.6272V14.4337C111.033 12.5198 112.585 10.9683 114.499 10.9683H117.458C119.372 10.9683 120.924 12.5198 120.924 14.4337V28.3992C120.924 31.2133 120.742 33.4812 120.38 35.2027C120.017 36.9243 119.341 38.381 118.352 39.5729C117.363 40.7648 116.012 41.5924 114.297 42.0559C112.583 42.5194 110.358 42.7512 107.621 42.7512C104.885 42.7512 102.66 42.5194 100.945 42.0559C99.2641 41.5924 97.9289 40.7648 96.9399 39.5729C95.9509 38.381 95.275 36.9243 94.9124 35.2027C94.5497 33.4812 94.3684 31.2133 94.3684 28.3992V14.4337C94.3684 12.5198 95.92 10.9683 97.8339 10.9683H100.793Z" fill="white"/>
<path d="M153.518 13.9635C153.753 12.2473 155.22 10.9683 156.952 10.9683H160.215C162.342 10.9683 163.968 12.8667 163.639 14.9683L159.875 39.0755C159.612 40.7625 158.159 42.0063 156.451 42.0063H149.354C147.701 42.0063 146.278 40.8388 145.956 39.2177L144.294 30.8747C144.26 30.7059 144.112 30.5843 143.94 30.5843C143.767 30.5843 143.619 30.7066 143.586 30.8761L141.963 39.2035C141.646 40.8313 140.22 42.0063 138.562 42.0063H131.477C129.77 42.0063 128.316 40.7625 128.053 39.0754L124.289 14.9683C123.961 12.8667 125.586 10.9683 127.713 10.9683H130.968C132.704 10.9683 134.172 12.2526 134.403 13.9731L136.304 28.1477C136.315 28.2348 136.39 28.2999 136.478 28.2999C136.561 28.2999 136.633 28.2413 136.649 28.1597L139.613 13.7363C139.944 12.1249 141.362 10.9683 143.007 10.9683H144.913C146.562 10.9683 147.983 12.1298 148.31 13.7456L151.23 28.1592C151.246 28.241 151.318 28.2999 151.402 28.2999C151.49 28.2999 151.564 28.2351 151.576 28.1482L153.518 13.9635Z" fill="white"/>
<path d="M171.205 42.0063C169.291 42.0063 167.74 40.4548 167.74 38.5408V14.4337C167.74 12.5198 169.291 10.9683 171.205 10.9683H174.165C176.079 10.9683 177.63 12.5198 177.63 14.4337V38.5408C177.63 40.4548 176.079 42.0063 174.165 42.0063H171.205Z" fill="white"/>
<path d="M203.528 42.0063C202.386 42.0063 201.317 41.4435 200.671 40.5017L194.137 30.9816C193.88 30.627 193.717 29.8645 193.648 28.6941C193.645 28.6402 193.6 28.5979 193.546 28.5979C193.49 28.5979 193.445 28.6433 193.445 28.6994V38.5408C193.445 40.4547 191.893 42.0063 189.979 42.0063H187.02C185.106 42.0063 183.555 40.4548 183.555 38.5408V14.4337C183.555 12.5198 185.106 10.9683 187.02 10.9683H191.027C192.169 10.9683 193.238 11.5311 193.884 12.4728L200.417 21.993C200.674 22.3475 200.837 23.11 200.907 24.2804C200.91 24.3343 200.954 24.3767 201.008 24.3767C201.064 24.3767 201.11 24.3312 201.11 24.2751V14.4337C201.11 12.5198 202.661 10.9683 204.575 10.9683H207.535C209.448 10.9683 211 12.5198 211 14.4337V38.5408C211 40.4548 209.448 42.0063 207.535 42.0063H203.528Z" fill="white"/>
</svg>
