<svg width="35" height="34" viewBox="0 0 35 34" fill="none" xmlns="http://www.w3.org/2000/svg">
<path d="M0.75 0V33.6H34.35V0H0.75ZM28.666 7.966L26.86 9.688C26.7841 9.7458 26.7256 9.82346 26.691 9.91239C26.6564 10.0013 26.6471 10.0981 26.664 10.192V22.89C26.6471 22.9839 26.6564 23.0807 26.691 23.1696C26.7256 23.2585 26.7841 23.3362 26.86 23.394L28.624 25.116V25.508H19.776V25.116L21.596 23.352C21.778 23.17 21.778 23.114 21.778 22.848V12.6L16.71 25.48H16.024L10.116 12.6V21.224C10.0936 21.4032 10.1108 21.5851 10.1664 21.7568C10.222 21.9286 10.3148 22.086 10.438 22.218L12.818 25.088V25.48H6.098V25.088L8.464 22.218C8.58816 22.0871 8.68052 21.9293 8.73393 21.7569C8.78734 21.5846 8.80036 21.4022 8.772 21.224V11.2C8.78593 11.0618 8.7665 10.9223 8.71534 10.7932C8.66418 10.6641 8.58279 10.5491 8.478 10.458L6.35 7.966V7.588H12.888L17.956 18.676L22.394 7.588H28.638L28.666 7.966Z" fill="white"/>
</svg>
